<svg viewBox="0 0 400 400" xmlns="http://www.w3.org/2000/svg">
  <rect width="400" height="400" fill="#F8F5F1"/>
  <rect x="60" y="100" width="280" height="200" rx="14" fill="#fff" stroke="#E7E1D9" stroke-width="2"/>
  <rect x="90" y="130" width="100" height="60" rx="6" fill="none" stroke="#C9785A" stroke-width="4"/>
  <rect x="210" y="130" width="100" height="40" rx="6" fill="none" stroke="#95A98E" stroke-width="4"/>
  <rect x="90" y="210" width="60" height="60" rx="6" fill="none" stroke="#D8AE63" stroke-width="4"/>
  <rect x="170" y="210" width="140" height="40" rx="6" fill="none" stroke="#232323" stroke-width="4"/>
  <g stroke="#232323" stroke-width="2">
    <line x1="60" y1="90" x2="60" y2="100"/>
    <line x1="100" y1="90" x2="100" y2="100"/>
    <line x1="140" y1="90" x2="140" y2="100"/>
    <line x1="180" y1="90" x2="180" y2="100"/>
    <line x1="220" y1="90" x2="220" y2="100"/>
    <line x1="260" y1="90" x2="260" y2="100"/>
    <line x1="300" y1="90" x2="300" y2="100"/>
    <line x1="340" y1="90" x2="340" y2="100"/>
  </g>
  <text x="200" y="350" font-family="Poppins, sans-serif" font-size="18" font-weight="700" text-anchor="middle" fill="#232323">Shipping Slot Sizer</text>
</svg>
