<svg version="1.0" xmlns="http://www.w3.org/2000/svg" viewBox="0 0 600.000000 600.000000" preserveAspectRatio="xMidYMid meet"> <g transform="translate(0.000000,600.000000) scale(0.100000,-0.100000)" fill="#C9785A" stroke="none" class=""> <path d="M3035 4659 c-160 -24 -278 -81 -386 -189 -212 -212 -238 -529 -65 -789 25 -38 46 -71 46 -74 0 -2 -104 -200 -231 -438 -127 -239 -254 -477 -281 -529 -28 -52 -66 -122 -84 -156 -19 -33 -34 -64 -34 -68 0 -4 19 -6 42 -4 l42 3 100 192 101 192 313 1 c191 0 312 4 312 10 0 5 -5 21 -12 35 l-11 25 -279 0 c-153 0 -278 2 -278 5 0 17 346 653 352 647 4 -4 125 -216 269 -472 144 -256 297 -526 339 -600 49 -85 73 -138 66 -142 -25 -16 -157 -30 -241 -25 -210 13 -409 138 -505 318 -30 57 -33 59 -71 59 -21 0 -39 -2 -39 -5 0 -3 13 -31 29 -63 116 -230 329 -366 591 -379 229 -12 423 64 567 221 108 118 167 271 167 436 0 284 -190 515 -506 615 l-102 32 -238 419 c-132 230 -249 439 -261 463 l-22 43 35 30 c48 40 142 84 219 104 98 25 273 16 369 -18 149 -53 284 -170 356 -308 37 -69 38 -70 77 -70 37 0 40 2 34 23 -22 71 -86 168 -160 243 -123 124 -253 189 -428 213 -88 12 -107 12 -192 0z m-95 -745 l265 -466 75 -19 c245 -61 431 -229 485 -436 47 -180 -14 -391 -153 -530 -69 -69 -167 -132 -182 -117 -4 5 -170 298 -368 652 -199 353 -379 668 -400 700 -48 70 -65 103 -86 165 -40 120 -39 255 4 369 21 58 75 148 87 148 5 0 127 -210 273 -466z" class=""></path>        </g> </svg>
